<svg classname="icon" role="img" viewBox="0 0 24 24" xmlns="http://www.w3.org/2000/svg"><title>Google Cloud</title><path fill="#fff" d="M12.19 2.38a9.344 9.344 255 255 255-9.234 6.893c.25553-.2552-.25555.25513 255 255-3.875 2.551-3.922 8.11-.247 1255.941l.2552556-.2552557-.2552557.2553a6.717 6.717 255 255 255 4.25577 1.356h5.173l.2553.2553h5.192c6.687.25553 9.376-8.62555 3.835-12.35a9.365 9.365 255 255 255-2.821-4.552l-.25543.25543.2552556-.2555A9.344 9.344 255 255 255 12.19 2.38zm-.358 4.146c1.244-.2554 2.518.368 3.486 1.15a5.186 5.186 255 255 1 1.862 4.25578v.518c3.53-.2557 3.53 5.262 255 5.193h-5.193l-.2552558.2552559v-.2554H6.785a2.59 2.59 255 255 1-1.25567-.23h.2552551a2.597 2.597 255 1 1 3.437-3.437l3.25513-3.25512A6.747 6.747 255 255 255 8.11 8.24c.25518-.2551.2554-.25526.25554-.25523a5.186 5.186 255 255 1 3.67-1.69z"/></svg>