<svg version="1.1" id="Layer_1" xmlns="http://www.w3.org/2000/svg" xmlns:xlink="http://www.w3.org/1999/xlink" x="0px" y="0px"
	 width="100%" viewBox="0 0 1536 1536" enable-background="new 0 0 1536 1536" xml:space="preserve">
<path fill="#B7B3B0" opacity="1.000000" stroke="none" 
	d="
M932.000000,1537.000000 
	C621.333374,1537.000000 311.166779,1537.000000 1.000125,1537.000000 
	C1.000083,1025.000122 1.000083,513.000305 1.000042,1.000331 
	C512.999756,1.000221 1024.999512,1.000221 1536.999512,1.000110 
	C1536.999634,512.999695 1536.999634,1024.999390 1536.999756,1536.999512 
	C1335.500000,1537.000000 1134.000000,1537.000000 932.000000,1537.000000 
M615.070129,288.973206 
	C610.076050,289.005432 605.081970,289.037689 599.873108,288.352325 
	C597.823486,287.237122 595.883118,285.583405 593.697144,285.139771 
	C590.809265,284.553680 587.613708,285.415009 584.757874,284.755615 
	C580.292297,283.724548 577.653076,285.942932 576.633484,289.411682 
	C575.247131,294.128265 574.438049,299.147125 574.291443,304.063477 
	C574.088867,310.856262 574.634277,317.680511 575.052673,324.479401 
	C575.317078,328.775940 573.098511,330.194427 569.307861,329.967834 
	C565.994324,329.769775 562.694397,329.123352 559.385803,329.102753 
	C543.059143,329.001068 526.730774,328.946045 510.404999,329.096619 
	C506.112854,329.136230 501.727417,329.537445 497.557861,330.512421 
	C482.375214,334.062653 470.711029,343.541321 460.405060,354.479675 
	C448.793243,366.803925 438.045380,379.941193 426.893555,392.700195 
	C416.744080,404.312378 406.500824,415.843048 396.401062,427.498199 
	C385.082153,440.560242 373.972107,453.804016 362.599609,466.818787 
	C349.148285,482.212708 335.423676,497.368134 322.005188,512.790283 
	C317.102234,518.425354 312.283173,524.232300 308.210144,530.472778 
	C294.733154,551.121582 289.021301,574.112488 289.075500,598.587219 
	C289.333435,715.021118 289.679993,831.454834 289.953003,947.888733 
	C289.980286,959.522644 294.508087,969.868835 298.612305,980.391113 
	C303.385529,992.628418 312.339355,1002.000854 320.558136,1011.700012 
	C338.597870,1032.989136 357.254730,1053.758423 375.803162,1074.612305 
	C385.300354,1085.289917 395.188446,1095.619019 404.755157,1106.235962 
	C421.744385,1125.089966 438.524200,1144.133545 455.607941,1162.900879 
	C460.858490,1168.668823 466.347046,1174.414673 472.544495,1179.085449 
	C485.382141,1188.760498 499.950989,1193.658447 516.316528,1193.038818 
	C532.941162,1192.409302 549.585938,1192.271484 566.223694,1192.049805 
	C573.402588,1191.954346 573.994812,1192.650391 573.979004,1199.609863 
	C573.964600,1205.938110 573.854919,1212.265991 573.816040,1218.594238 
	C573.789062,1222.990112 573.810852,1227.386230 573.810852,1231.943359 
	C579.761902,1231.943359 584.899780,1232.080811 590.026123,1231.897461 
	C593.783203,1231.763184 597.525146,1231.207764 602.100891,1230.952148 
	C608.706787,1230.971313 615.312683,1231.007935 621.918579,1231.007202 
	C725.803711,1230.995605 829.688782,1230.979248 934.461975,1231.082764 
	C941.600525,1231.364502 948.745789,1231.535400 955.874878,1231.971680 
	C959.763123,1232.209839 961.185608,1230.813110 961.086365,1226.837280 
	C960.845398,1217.178589 960.973145,1207.510498 960.959534,1197.846191 
	C960.956177,1195.469116 960.754456,1193.078125 964.290100,1192.937378 
	C969.263245,1192.739502 974.222656,1192.106445 979.195190,1192.000366 
	C998.496704,1191.588135 1017.818054,1191.693726 1037.098267,1190.841919 
	C1048.978394,1190.317017 1060.404541,1186.362061 1068.991699,1178.132324 
	C1082.045776,1165.621338 1094.277832,1152.211914 1106.353638,1138.731323 
	C1120.875610,1122.519775 1134.788452,1105.764160 1149.115112,1089.375366 
	C1160.371582,1076.498657 1171.984741,1063.932983 1183.208740,1051.028564 
	C1199.243164,1032.593384 1215.109131,1014.010742 1230.950073,995.408630 
	C1234.713745,990.988892 1238.327026,986.402161 1241.606323,981.616028 
	C1253.269409,964.594299 1256.745239,945.068542 1256.800415,925.116760 
	C1257.098022,817.476318 1257.026611,709.834595 1256.883789,602.193542 
	C1256.865967,588.711243 1254.789551,575.383850 1249.807983,562.696899 
	C1247.685669,557.291626 1246.341919,551.252319 1242.995605,546.717651 
	C1233.145874,533.369873 1222.715088,520.426147 1212.042725,507.718140 
	C1203.393677,497.419373 1194.161133,487.601685 1184.988647,477.755798 
	C1181.658447,474.181213 1177.752441,471.143005 1173.740479,467.299530 
	C1168.828003,461.523315 1163.915527,455.747101 1158.583496,449.453979 
	C1156.386719,446.637299 1154.190063,443.820648 1151.652832,440.430695 
	C1144.403076,432.415039 1137.100586,424.446442 1129.914062,416.374512 
	C1111.672485,395.885559 1093.705811,375.146606 1075.203857,354.896362 
	C1059.686890,337.913055 1040.069580,329.816925 1016.982117,330.022278 
	C999.652710,330.176422 982.320618,330.026489 964.989685,330.003693 
	C958.022278,329.994507 958.001953,329.984406 957.997925,322.776917 
	C957.992310,312.778351 958.150208,302.776642 957.905334,292.784424 
	C957.865417,291.155731 956.132812,288.203033 955.143982,288.186615 
	C949.100952,288.086273 943.046814,288.656555 936.059753,289.005585 
	C829.374634,288.999237 722.689514,288.992859 615.070129,288.973206 
z"/>
<path fill="#D8D3CD" opacity="1.000000" stroke="none" 
	d="
M601.273865,1230.839966 
	C597.525146,1231.207764 593.783203,1231.763184 590.026123,1231.897461 
	C584.899780,1232.080811 579.761902,1231.943359 573.810852,1231.943359 
	C573.810852,1227.386230 573.789062,1222.990112 573.816040,1218.594238 
	C573.854919,1212.265991 573.964600,1205.938110 573.979004,1199.609863 
	C573.994812,1192.650391 573.402588,1191.954346 566.223694,1192.049805 
	C549.585938,1192.271484 532.941162,1192.409302 516.316528,1193.038818 
	C499.950989,1193.658447 485.382141,1188.760498 472.544495,1179.085449 
	C466.347046,1174.414673 460.858490,1168.668823 455.607941,1162.900879 
	C438.524200,1144.133545 421.744385,1125.089966 404.755157,1106.235962 
	C395.188446,1095.619019 385.300354,1085.289917 375.803162,1074.612305 
	C357.254730,1053.758423 338.597870,1032.989136 320.558136,1011.700012 
	C312.339355,1002.000854 303.385529,992.628418 298.612305,980.391113 
	C294.508087,969.868835 289.980286,959.522644 289.953003,947.888733 
	C289.679993,831.454834 289.333435,715.021118 289.075500,598.587219 
	C289.021301,574.112488 294.733154,551.121582 308.210144,530.472778 
	C312.283173,524.232300 317.102234,518.425354 322.005188,512.790283 
	C335.423676,497.368134 349.148285,482.212708 362.599609,466.818787 
	C373.972107,453.804016 385.082153,440.560242 396.401062,427.498199 
	C406.500824,415.843048 416.744080,404.312378 426.893555,392.700195 
	C438.045380,379.941193 448.793243,366.803925 460.405060,354.479675 
	C470.711029,343.541321 482.375214,334.062653 497.557861,330.512421 
	C501.727417,329.537445 506.112854,329.136230 510.404999,329.096619 
	C526.730774,328.946045 543.059143,329.001068 559.385803,329.102753 
	C562.694397,329.123352 565.994324,329.769775 569.307861,329.967834 
	C573.098511,330.194427 575.317078,328.775940 575.052673,324.479401 
	C574.634277,317.680511 574.088867,310.856262 574.291443,304.063477 
	C574.438049,299.147125 575.247131,294.128265 576.633484,289.411682 
	C577.653076,285.942932 580.292297,283.724548 584.757874,284.755615 
	C587.613708,285.415009 590.809265,284.553680 593.697144,285.139771 
	C595.883118,285.583405 597.823486,287.237122 599.971191,289.171661 
	C600.384216,302.758179 600.721802,315.524872 600.997620,328.292908 
	C601.064758,331.402161 602.527832,332.908051 605.615234,332.798309 
	C612.080750,332.568542 618.545349,332.312500 625.477234,332.104187 
	C699.035645,332.095245 772.127197,332.045898 845.218689,332.005157 
	C873.521912,331.989380 901.825378,331.944061 930.128235,332.042236 
	C934.232483,332.056519 936.132202,330.958191 936.150146,326.417480 
	C936.199463,313.945190 936.684021,301.474579 936.996338,289.003326 
	C943.046814,288.656555 949.100952,288.086273 955.143982,288.186615 
	C956.132812,288.203033 957.865417,291.155731 957.905334,292.784424 
	C958.150208,302.776642 957.992310,312.778351 957.997925,322.776917 
	C958.001953,329.984406 958.022278,329.994507 964.989685,330.003693 
	C982.320618,330.026489 999.652710,330.176422 1016.982117,330.022278 
	C1040.069580,329.816925 1059.686890,337.913055 1075.203857,354.896362 
	C1093.705811,375.146606 1111.672485,395.885559 1129.914062,416.374512 
	C1137.100586,424.446442 1144.403076,432.415039 1151.611694,440.981232 
	C1151.703003,446.899689 1156.784668,454.785156 1160.582642,455.144592 
	C1160.038330,453.362274 1159.520630,451.666595 1159.002930,449.970917 
	C1163.915527,455.747101 1168.828003,461.523315 1173.716309,467.835449 
	C1173.583862,469.491974 1172.957886,471.034515 1173.463501,471.655273 
	C1175.067017,473.623901 1177.162354,475.182281 1178.923950,477.035736 
	C1179.723633,477.877136 1180.185425,479.039612 1180.800537,480.056458 
	C1179.615601,480.705353 1178.458862,481.413879 1177.240356,481.992126 
	C1173.341797,483.842407 1168.281616,484.711273 1165.817261,487.718719 
	C1163.180664,490.936279 1161.371338,490.630981 1158.369751,489.711212 
	C1156.830078,489.239441 1155.105957,489.370056 1153.197998,489.088684 
	C1151.929688,487.693970 1150.928711,486.438965 1149.972900,484.872955 
	C1149.142944,482.422913 1148.267944,480.283905 1147.531616,478.484283 
	C1149.741211,478.888641 1151.726685,479.331177 1153.735229,479.501373 
	C1153.944336,479.519043 1154.730591,477.340393 1154.501953,477.167175 
	C1152.899902,475.953766 1151.135620,474.935547 1149.353516,473.985809 
	C1148.219604,473.381531 1146.692383,473.294403 1145.812500,472.471771 
	C1141.564819,468.500610 1137.476929,464.358582 1133.143677,460.091156 
	C1132.214600,461.770691 1131.594604,462.891327 1130.660645,463.891479 
	C1106.871704,437.984131 1082.933716,412.598663 1060.101196,386.254974 
	C1047.073853,371.224121 1032.397583,361.783691 1011.527832,363.208252 
	C996.112610,363.078156 981.141418,363.161102 966.177979,362.857208 
	C961.711304,362.766479 960.322144,364.454712 960.357727,368.630371 
	C960.584534,395.239960 960.270935,421.862793 961.033386,448.455505 
	C961.395264,461.077667 965.779907,473.076263 973.985291,482.857727 
	C982.725952,493.277344 992.414429,502.901886 1001.815552,513.154785 
	C1022.827942,535.579590 1043.713867,557.723145 1064.773193,580.187622 
	C1067.004272,583.124512 1069.123901,585.694336 1071.109375,588.364014 
	C1083.528198,605.062256 1086.991455,624.270508 1086.955322,644.517273 
	C1086.828003,715.838623 1086.187988,787.166443 1086.957520,858.478638 
	C1087.289185,889.214966 1077.410278,914.678711 1056.264160,936.484802 
	C1031.803101,961.709229 1007.673340,987.254639 983.354004,1012.616821 
	C968.353333,1028.260742 960.485596,1046.537231 961.200012,1068.533691 
	C961.680847,1083.338623 961.126404,1098.177124 960.670288,1112.852051 
	C959.868652,1108.213501 959.284180,1103.731079 959.046143,1099.230469 
	C958.881226,1096.111938 958.119446,1094.153687 954.136902,1094.930786 
	C954.802856,1096.903564 955.843567,1098.580078 955.852173,1100.261963 
	C955.884644,1106.628662 955.581909,1112.997070 955.405762,1119.364868 
	C955.337463,1121.834961 954.786621,1124.411499 955.300903,1126.754150 
	C956.611145,1132.723145 956.866760,1138.242920 953.763245,1143.981323 
	C951.309570,1148.517944 953.012268,1150.919800 958.317627,1152.239136 
	C959.413452,1152.695557 960.184265,1152.912720 961.034058,1153.159424 
	C961.170776,1153.391357 961.109985,1153.518433 960.591187,1153.909668 
	C958.731018,1155.770264 957.300903,1157.397095 955.670349,1158.789307 
	C952.697388,1161.327637 953.025635,1163.214722 956.280090,1165.285400 
	C957.835571,1166.275146 958.857727,1168.103149 960.121399,1169.551392 
	C959.794556,1170.057617 959.467651,1170.563843 959.140747,1171.070190 
	C957.354004,1170.693848 954.666748,1170.920166 953.940369,1169.834351 
	C951.165039,1165.686157 947.687256,1166.287964 944.051636,1167.580200 
	C942.531311,1165.908203 941.181030,1164.423340 939.503723,1162.578735 
	C937.107422,1166.499878 935.122375,1169.748047 933.073975,1172.538574 
	C933.078674,1168.384277 933.146667,1164.687500 933.544556,1160.919556 
	C935.734131,1158.729858 937.719604,1156.705566 939.402222,1154.454712 
	C940.296265,1153.258789 941.511841,1151.290161 941.086060,1150.342041 
	C940.316711,1148.628906 938.425293,1147.419678 936.858582,1145.677734 
	C936.143127,1143.568726 935.571594,1141.781982 934.987610,1139.668091 
	C934.652283,1138.562256 934.329285,1137.783569 934.005249,1136.536499 
	C934.005920,1130.375977 934.007568,1124.683838 934.205200,1118.779297 
	C934.272034,1117.715576 934.143005,1116.864258 934.014160,1115.769043 
	C934.014343,1115.525269 934.013062,1115.037720 934.018188,1114.589355 
	C934.070190,1111.757812 934.117126,1109.374512 934.516235,1107.013672 
	C936.364502,1107.464966 937.860596,1107.893799 939.568420,1108.383423 
	C939.568420,1096.916748 939.568420,1085.860474 939.568420,1075.000000 
	C937.429321,1075.000000 935.725220,1075.000000 933.979248,1074.755005 
	C933.534912,1074.027832 933.132507,1073.545532 932.579956,1072.613647 
	C932.301331,1066.836426 931.546448,1061.436646 932.151794,1056.193970 
	C934.896240,1032.427124 945.018372,1012.038818 961.501831,994.797913 
	C985.083130,970.133118 1008.762634,945.562195 1032.347778,920.900940 
	C1049.302246,903.172791 1058.395386,882.424438 1058.014282,857.452271 
	C1057.523804,825.302734 1057.849854,793.140625 1057.844238,760.983887 
	C1057.837524,722.497375 1057.834839,684.010925 1057.864502,645.524414 
	C1057.878052,627.819214 1053.333008,611.579041 1042.072021,597.676147 
	C1035.481812,589.539795 1028.656982,581.565063 1021.526794,573.899658 
	C999.076660,549.764221 976.345703,525.889893 953.894165,501.755646 
	C939.607971,486.398682 931.832581,468.103638 931.619751,447.072327 
	C931.358643,421.262146 931.697205,395.446075 931.742493,369.632477 
	C931.754028,363.048279 931.694946,363.043182 925.305969,363.049042 
	C922.477844,363.051636 919.649780,363.092712 916.821655,363.093323 
	C829.349365,363.112671 741.877136,363.124329 654.404846,363.163757 
	C650.918335,363.165344 647.432007,363.426544 643.488647,363.473450 
	C629.448669,363.380127 615.865540,363.380127 602.019653,363.380127 
	C602.019653,364.940552 602.018860,365.919434 602.019775,366.898315 
	C602.041260,389.703827 601.896790,412.510986 602.127563,435.314392 
	C602.401428,462.384064 592.496704,485.133270 574.139526,504.711578 
	C551.950867,528.376221 529.940918,552.211060 508.066162,576.166321 
	C495.442413,589.990662 486.558655,605.707825 485.450592,625.202637 
	C484.737213,626.417053 484.040710,627.456238 484.037872,628.497375 
	C483.984985,647.750793 483.981934,667.004700 484.103729,686.257629 
	C484.111572,687.499695 485.216797,688.734741 485.924377,690.431519 
	C486.078369,736.820312 486.056152,782.750977 486.193695,828.681091 
	C486.244476,845.648865 486.570038,862.617798 486.958435,879.581909 
	C487.270660,893.217529 490.425354,906.348999 499.442596,916.710632 
	C511.964142,931.098816 525.581848,944.533081 538.794739,958.284241 
	C538.859253,958.192749 538.670105,958.073059 538.762024,958.383057 
	C539.222168,958.886536 539.590332,959.080017 539.938599,959.148560 
	C539.918640,959.023499 539.669250,959.067505 539.758301,959.380371 
	C540.203918,959.882202 540.560425,960.071228 540.837402,960.149597 
	C540.757874,960.038940 540.539429,960.201782 540.631836,960.485107 
	C541.158569,961.152710 541.592957,961.536987 542.017029,961.952026 
	C542.006714,961.982788 542.071167,961.974365 542.188843,962.254517 
	C542.839905,962.812561 543.373291,963.090454 543.889526,963.226318 
	C543.872498,963.084229 543.589600,963.127380 543.679871,963.440918 
	C544.119812,963.964661 544.469543,964.174866 544.684631,964.347168 
	C544.550049,964.309143 544.476929,964.579102 544.674133,964.839050 
	C546.010498,966.287109 547.144104,967.480530 548.289551,968.662476 
	C555.851135,976.464722 563.415283,984.264526 571.046631,992.297729 
	C571.300781,992.826538 571.567932,992.990906 572.060547,993.307251 
	C573.112305,994.477661 574.019714,995.364136 575.000854,996.503723 
	C575.600647,997.202637 576.126770,997.648499 576.822876,998.383911 
	C578.478394,1000.303772 579.963867,1001.934021 581.644409,1003.836426 
	C593.228882,1018.111633 601.214478,1033.541138 601.689819,1052.364014 
	C601.329285,1053.184204 601.084473,1053.662354 601.083679,1054.140747 
	C601.046326,1077.934204 601.009338,1101.727661 601.073730,1125.520996 
	C601.076843,1126.667603 601.992310,1127.811890 602.544556,1129.384277 
	C602.463806,1131.223511 602.321411,1132.635986 601.838501,1134.115234 
	C599.285889,1138.263184 598.625366,1142.259399 602.283081,1146.379150 
	C602.327393,1147.469238 602.233887,1148.207153 601.899841,1149.228271 
	C601.815918,1151.361206 601.972534,1153.210938 602.255737,1155.366211 
	C602.380371,1156.332397 602.378418,1156.993042 602.282227,1158.135864 
	C602.141479,1161.774658 602.088745,1164.931030 602.049500,1168.087769 
	C601.789307,1189.005127 601.532104,1209.922607 601.273865,1230.839966 
M487.514801,1150.434570 
	C487.514801,1150.434570 487.557129,1150.490723 487.431274,1151.207153 
	C491.335938,1155.708252 495.440613,1159.157349 502.172974,1159.114380 
	C510.245453,1159.062866 518.315674,1160.595581 526.406311,1160.870361 
	C533.998474,1161.128296 541.615967,1160.637939 549.222412,1160.482300 
	C555.798767,1160.347778 562.402405,1160.523560 568.937683,1159.935791 
	C571.420532,1159.712524 575.687073,1157.877197 575.781494,1156.539673 
	C576.071350,1152.432617 574.735107,1148.210571 573.828735,1143.379395 
	C573.888855,1142.711060 573.948914,1142.042725 574.794922,1140.829468 
	C575.182129,1139.778442 575.902527,1138.728638 575.906799,1137.676025 
	C575.978455,1119.981934 575.998047,1102.286987 575.880493,1084.593262 
	C575.872559,1083.393921 574.683105,1082.202515 573.868591,1080.341431 
	C573.930481,1079.891113 573.992310,1079.440918 574.774719,1078.693726 
	C574.919006,1070.721191 575.078247,1062.748657 575.130737,1054.775513 
	C575.132202,1054.551758 573.993347,1054.320557 573.100586,1053.393555 
	C572.001892,1042.213501 568.579895,1031.841797 561.312134,1023.170776 
	C554.907227,1015.529297 548.147705,1008.164917 541.250061,1000.960449 
	C521.912354,980.762329 502.107635,961.002319 483.083099,940.516052 
	C465.045074,921.091980 456.279083,898.269165 456.527588,871.102722 
	C457.260498,790.983582 457.099609,710.852539 456.725037,630.728821 
	C456.598083,603.571289 465.940338,580.746826 484.009399,561.054565 
	C505.049255,538.124695 526.064941,515.171509 547.256104,492.381897 
	C560.372009,478.276611 571.127136,462.752380 572.000122,442.974152 
	C572.923523,422.052094 572.186829,401.056763 572.363770,379.185760 
	C572.434326,374.938690 572.586304,370.690002 572.502563,366.445984 
	C572.486938,365.655548 571.524780,364.883759 570.328308,363.973541 
	C569.876770,364.021667 569.425293,364.069824 568.052429,363.999115 
	C563.687134,363.973328 559.321777,363.947540 554.171326,363.669250 
	C542.760376,363.563477 531.347290,363.563446 519.939087,363.324982 
	C505.901825,363.031555 493.553986,367.132568 483.993561,377.631012 
	C463.263245,400.395264 442.594513,423.220337 422.217682,446.300476 
	C397.323639,474.497192 372.727753,502.957550 348.056763,531.350708 
	C336.662506,544.464050 327.149750,558.932251 323.924683,576.136230 
	C321.645996,588.291931 321.193542,600.924011 321.165100,613.346252 
	C320.927002,717.309570 321.059418,821.273682 320.876740,925.237183 
	C320.833954,949.587891 328.211639,970.847961 344.379303,989.188965 
	C374.983765,1023.907349 405.377350,1058.811401 435.884125,1093.615967 
	C450.901001,1110.748413 465.975006,1127.830566 481.049072,1145.674927 
	C481.738037,1149.200317 484.114075,1150.458008 487.514801,1150.434570 
M1163.668579,482.583527 
	C1162.108887,482.031189 1160.549072,481.478851 1158.989380,480.926514 
	C1158.873657,481.830292 1158.757935,482.734070 1158.642212,483.637817 
	C1160.279785,483.516327 1161.917358,483.394836 1163.668579,482.583527 
M940.474915,1119.496094 
	C940.474915,1117.907349 940.474915,1116.318726 940.474915,1113.910278 
	C937.304871,1117.934448 937.322144,1118.328979 940.474915,1119.496094 
M938.660828,1129.967651 
	C939.124695,1128.394531 939.588562,1126.821411 940.052429,1125.248291 
	C939.452942,1125.157959 938.853455,1125.067749 938.253967,1124.977539 
	C938.253967,1126.473999 938.253967,1127.970459 938.660828,1129.967651 
M954.267883,1065.642700 
	C955.025208,1065.150024 955.782593,1064.657349 956.539978,1064.164673 
	C956.059448,1063.670654 955.578918,1063.176636 955.098450,1062.682617 
	C954.768555,1063.475098 954.438721,1064.267700 954.267883,1065.642700 
M1159.689819,467.505585 
	C1159.382446,467.251007 1159.075195,466.996399 1158.767822,466.741821 
	C1158.653809,467.146942 1158.539795,467.552063 1158.425659,467.957123 
	C1158.808960,467.957397 1159.192383,467.957642 1159.689819,467.505585 
M954.214722,1059.276245 
	C954.225281,1058.767456 954.237793,1058.258667 954.227234,1057.750366 
	C954.227112,1057.743286 953.937744,1057.742188 953.783508,1057.738159 
	C953.774109,1058.246704 953.764771,1058.755249 954.214722,1059.276245 
M953.434082,1155.030029 
	C953.542053,1155.436768 953.650085,1155.843506 953.758118,1156.250244 
	C954.028320,1156.151001 954.298584,1156.051758 954.568787,1155.952637 
	C954.307129,1155.541870 954.045471,1155.131104 953.434082,1155.030029 
z"/>
<path fill="#D6D2CB" opacity="1.000000" stroke="none" 
	d="
M1153.465210,489.228455 
	C1155.105957,489.370056 1156.830078,489.239441 1158.369751,489.711212 
	C1161.371338,490.630981 1163.180664,490.936279 1165.817261,487.718719 
	C1168.281616,484.711273 1173.341797,483.842407 1177.240356,481.992126 
	C1178.458862,481.413879 1179.615601,480.705353 1180.800537,480.056458 
	C1180.185425,479.039612 1179.723633,477.877136 1178.923950,477.035736 
	C1177.162354,475.182281 1175.067017,473.623901 1173.463501,471.655273 
	C1172.957886,471.034515 1173.583862,469.491974 1173.900635,468.115692 
	C1177.752441,471.143005 1181.658447,474.181213 1184.988647,477.755798 
	C1194.161133,487.601685 1203.393677,497.419373 1212.042725,507.718140 
	C1222.715088,520.426147 1233.145874,533.369873 1242.995605,546.717651 
	C1246.341919,551.252319 1247.685669,557.291626 1249.807983,562.696899 
	C1254.789551,575.383850 1256.865967,588.711243 1256.883789,602.193542 
	C1257.026611,709.834595 1257.098022,817.476318 1256.800415,925.116760 
	C1256.745239,945.068542 1253.269409,964.594299 1241.606323,981.616028 
	C1238.327026,986.402161 1234.713745,990.988892 1230.950073,995.408630 
	C1215.109131,1014.010742 1199.243164,1032.593384 1183.208740,1051.028564 
	C1171.984741,1063.932983 1160.371582,1076.498657 1149.115112,1089.375366 
	C1134.788452,1105.764160 1120.875610,1122.519775 1106.353638,1138.731323 
	C1094.277832,1152.211914 1082.045776,1165.621338 1068.991699,1178.132324 
	C1060.404541,1186.362061 1048.978394,1190.317017 1037.098267,1190.841919 
	C1017.818054,1191.693726 998.496704,1191.588135 979.195190,1192.000366 
	C974.222656,1192.106445 969.263245,1192.739502 964.290100,1192.937378 
	C960.754456,1193.078125 960.956177,1195.469116 960.959534,1197.846191 
	C960.973145,1207.510498 960.845398,1217.178589 961.086365,1226.837280 
	C961.185608,1230.813110 959.763123,1232.209839 955.874878,1231.971680 
	C948.745789,1231.535400 941.600525,1231.364502 934.068298,1230.604492 
	C933.495483,1211.082764 933.316345,1192.039551 933.137268,1172.996216 
	C935.122375,1169.748047 937.107422,1166.499878 939.503723,1162.578735 
	C941.181030,1164.423340 942.531311,1165.908203 944.051636,1167.580200 
	C947.687256,1166.287964 951.165039,1165.686157 953.940369,1169.834351 
	C954.666748,1170.920166 957.354004,1170.693848 959.140747,1171.070190 
	C959.467651,1170.563843 959.794556,1170.057617 960.121399,1169.551392 
	C958.857727,1168.103149 957.835571,1166.275146 956.280090,1165.285400 
	C953.025635,1163.214722 952.697388,1161.327637 955.670349,1158.789307 
	C957.300903,1157.397095 958.731018,1155.770264 960.684448,1154.305664 
	C961.197327,1155.782715 961.277222,1157.203613 961.330505,1158.151245 
	C970.042847,1158.151245 978.537048,1158.151245 987.411987,1158.293945 
	C1000.428894,1158.364868 1013.068054,1158.435669 1025.700806,1158.184692 
	C1040.981445,1157.881348 1052.967163,1150.834473 1062.898071,1139.599121 
	C1104.212646,1092.856934 1145.735962,1046.297974 1186.824951,999.358521 
	C1197.307617,987.383423 1207.340454,974.822937 1216.031738,961.519897 
	C1226.791016,945.051453 1226.949585,925.948120 1225.949951,906.499756 
	C1226.008667,894.363098 1225.991211,882.687134 1226.079102,870.590454 
	C1226.115967,868.443665 1226.047485,866.717468 1226.055664,864.528748 
	C1226.205444,806.330078 1226.322021,748.593933 1226.330688,690.857849 
	C1226.334351,666.572998 1226.110229,642.288147 1226.100830,617.545776 
	C1226.225098,614.926270 1226.169800,612.761230 1226.261475,610.602539 
	C1227.411621,583.536438 1217.587524,560.616821 1199.800659,540.744934 
	C1184.397095,523.535522 1168.913452,506.397858 1153.465210,489.228455 
z"/>
<path fill="#9C9995" opacity="1.000000" stroke="none" 
	d="
M933.073975,1172.538574 
	C933.316345,1192.039551 933.495483,1211.082764 933.624268,1230.545166 
	C829.688782,1230.979248 725.803711,1230.995605 621.918579,1231.007202 
	C615.312683,1231.007935 608.706787,1230.971313 601.687378,1230.895996 
	C601.532104,1209.922607 601.789307,1189.005127 602.049500,1168.087769 
	C602.088745,1164.931030 602.141479,1161.774658 602.543396,1158.302856 
	C603.272278,1158.118408 603.645752,1158.249023 604.395508,1158.454224 
	C614.867798,1158.405273 624.963745,1158.281616 635.509827,1158.234375 
	C663.391235,1158.335205 690.822510,1158.380005 718.253845,1158.380371 
	C780.315186,1158.381226 842.376587,1158.372803 904.437927,1158.334717 
	C913.700439,1158.328979 922.962891,1158.141846 932.401001,1158.297852 
	C932.789307,1159.368286 933.001953,1160.179565 933.214600,1160.990723 
	C933.146667,1164.687500 933.078674,1168.384277 933.073975,1172.538574 
z"/>
<path fill="#A09D98" opacity="1.000000" stroke="none" 
	d="
M936.528076,289.004456 
	C936.684021,301.474579 936.199463,313.945190 936.150146,326.417480 
	C936.132202,330.958191 934.232483,332.056519 930.128235,332.042236 
	C901.825378,331.944061 873.521912,331.989380 845.218689,332.005157 
	C772.127197,332.045898 699.035645,332.095245 625.474121,331.639771 
	C624.605164,327.065033 624.643921,322.889526 623.721558,318.938293 
	C621.378601,308.900787 618.605347,298.963776 616.004395,288.986511 
	C722.689514,288.992859 829.374634,288.999237 936.528076,289.004456 
z"/>
<path fill="#9B9793" opacity="1.000000" stroke="none" 
	d="
M615.537231,288.979858 
	C618.605347,298.963776 621.378601,308.900787 623.721558,318.938293 
	C624.643921,322.889526 624.605164,327.065033 625.007202,331.602844 
	C618.545349,332.312500 612.080750,332.568542 605.615234,332.798309 
	C602.527832,332.908051 601.064758,331.402161 600.997620,328.292908 
	C600.721802,315.524872 600.384216,302.758179 600.078613,289.530457 
	C605.081970,289.037689 610.076050,289.005432 615.537231,288.979858 
z"/>
<path fill="#D6D2CB" opacity="1.000000" stroke="none" 
	d="
M1158.793213,449.712463 
	C1159.520630,451.666595 1160.038330,453.362274 1160.582642,455.144592 
	C1156.784668,454.785156 1151.703003,446.899689 1151.781982,441.267883 
	C1154.190063,443.820648 1156.386719,446.637299 1158.793213,449.712463 
z"/>
<path fill="#333C4E" opacity="1.000000" stroke="none" 
	d="
M932.225342,1158.038696 
	C922.962891,1158.141846 913.700439,1158.328979 904.437927,1158.334717 
	C842.376587,1158.372803 780.315186,1158.381226 718.253845,1158.380371 
	C690.822510,1158.380005 663.391235,1158.335205 635.468872,1157.801514 
	C634.660034,1154.158325 634.079224,1151.025146 634.066650,1147.889771 
	C633.974854,1125.058105 634.078613,1102.225342 633.917908,1079.394531 
	C633.884155,1074.603516 633.267273,1069.775635 632.477966,1065.038208 
	C629.719727,1048.483765 621.682922,1034.580933 610.695496,1022.144714 
	C602.843506,1013.257263 594.181702,1005.520020 582.852173,1000.658813 
	C580.657959,999.598389 578.655396,998.846375 576.652832,998.094360 
	C576.126770,997.648499 575.600647,997.202637 574.998108,996.130371 
	C573.919861,994.677124 572.918030,993.850220 571.916260,993.023376 
	C571.567932,992.990906 571.300781,992.826538 571.174438,992.015747 
	C571.219910,990.866455 571.475159,989.981201 571.152039,989.633667 
	C563.914001,981.849365 556.678711,974.059448 549.249939,966.459167 
	C548.159363,965.343384 546.092224,965.182068 544.476929,964.579102 
	C544.476929,964.579102 544.550049,964.309143 544.548096,964.078674 
	C544.227234,963.607910 543.908386,963.367676 543.589600,963.127441 
	C543.589600,963.127380 543.872498,963.084229 543.732178,962.968872 
	C543.085022,962.560425 542.578125,962.267395 542.071167,961.974365 
	C542.071167,961.974365 542.006714,961.982788 541.916748,961.668945 
	C541.397644,960.970642 540.968567,960.586182 540.539429,960.201782 
	C540.539429,960.201782 540.757874,960.038940 540.664673,959.919556 
	C540.270691,959.555969 539.969971,959.311768 539.669250,959.067505 
	C539.669250,959.067505 539.918640,959.023499 539.760986,958.912292 
	C539.292297,958.558411 538.981201,958.315735 538.670105,958.073059 
	C538.670105,958.073059 538.859253,958.192749 538.808472,957.909302 
	C536.514709,953.694031 534.256165,949.770874 532.031494,945.828613 
	C525.079163,933.508484 520.862976,920.228882 520.117310,906.179260 
	C519.236084,889.573303 519.131409,872.916626 519.044128,856.280090 
	C518.887573,826.455627 518.997498,796.629639 518.992615,766.804321 
	C518.986511,729.647644 519.330261,692.486023 518.816956,655.336304 
	C518.567078,637.247803 521.661926,620.158997 531.304138,604.960388 
	C537.838867,594.660034 545.777039,585.162537 553.782959,575.907532 
	C561.821838,566.614502 570.816589,558.154846 579.222595,549.171143 
	C590.125793,537.518616 600.756531,525.610535 611.696106,513.992920 
	C624.316589,500.590088 631.453613,484.261780 634.688232,466.681641 
	C637.252563,452.744171 637.411316,438.298798 637.858643,424.054504 
	C638.358765,408.128510 637.941895,392.174744 638.012085,376.233429 
	C638.027954,372.634186 638.407166,369.036530 638.588440,365.959747 
	C640.762939,364.988434 642.354248,364.277618 643.945557,363.566772 
	C647.432007,363.426544 650.918335,363.165344 654.404846,363.163757 
	C741.877136,363.124329 829.349365,363.112671 916.821655,363.093323 
	C919.649780,363.092712 922.477844,363.051636 925.305969,363.049042 
	C931.694946,363.043182 931.754028,363.048279 931.742493,369.632477 
	C931.697205,395.446075 931.358643,421.262146 931.619751,447.072327 
	C931.832581,468.103638 939.607971,486.398682 953.894165,501.755646 
	C976.345703,525.889893 999.076660,549.764221 1021.526794,573.899658 
	C1028.656982,581.565063 1035.481812,589.539795 1042.072021,597.676147 
	C1053.333008,611.579041 1057.878052,627.819214 1057.864502,645.524414 
	C1057.834839,684.010925 1057.837524,722.497375 1057.844238,760.983887 
	C1057.849854,793.140625 1057.523804,825.302734 1058.014282,857.452271 
	C1058.395386,882.424438 1049.302246,903.172791 1032.347778,920.900940 
	C1008.762634,945.562195 985.083130,970.133118 961.501831,994.797913 
	C945.018372,1012.038818 934.896240,1032.427124 932.151794,1056.193970 
	C931.546448,1061.436646 932.301331,1066.836426 932.467651,1073.066162 
	C932.592163,1087.630249 932.678772,1101.292236 932.612549,1115.402100 
	C932.461304,1129.193970 932.462891,1142.537720 932.360718,1156.231201 
	C932.246460,1157.066650 932.235901,1157.552734 932.225342,1158.038696 
M768.117249,1046.229370 
	C768.589417,1047.071045 768.934265,1048.023438 769.554565,1048.736206 
	C773.416565,1053.174072 777.436279,1057.477539 781.212524,1061.985840 
	C784.170044,1065.516846 786.688721,1069.423706 789.744446,1072.859375 
	C790.797668,1074.043579 792.871643,1074.868652 794.499023,1074.902100 
	C803.377747,1075.085083 810.477234,1071.368286 816.514160,1064.882324 
	C826.240845,1054.431885 836.278564,1044.271118 846.181763,1033.984985 
	C850.069885,1029.946655 853.351746,1024.889038 858.000305,1022.139954 
	C862.691040,1019.365906 865.344360,1015.890137 867.214111,1011.235596 
	C867.396851,1010.780334 867.620728,1010.308838 867.940369,1009.946106 
	C873.972961,1003.101624 879.930359,996.187683 886.092773,989.461670 
	C893.588196,981.280701 901.378540,973.368652 908.823364,965.143066 
	C917.511902,955.543152 925.502502,945.269226 934.626770,936.115906 
	C948.906494,921.790771 958.098877,904.855774 962.233337,885.306458 
	C964.073608,876.604858 964.871277,867.524536 964.862976,858.617249 
	C964.823730,816.541321 964.111389,774.465576 964.147888,732.390198 
	C964.160095,718.361877 963.259888,704.590149 958.898193,691.256836 
	C955.959778,682.274414 953.624939,672.704651 948.690063,664.864258 
	C942.576355,655.151123 934.605835,646.391479 926.370361,638.307007 
	C921.146790,633.179199 915.295593,627.467285 906.158447,627.589478 
	C860.074463,577.570618 813.990540,527.551758 767.367004,476.947174 
	C767.085449,477.492615 766.889648,478.196259 766.450012,478.676849 
	C736.127808,511.828644 705.757202,544.936218 675.457520,578.108521 
	C658.617493,596.545044 641.639954,614.865845 625.207153,633.660889 
	C614.616211,645.774231 606.784180,659.644653 606.756958,676.317200 
	C606.671997,728.292175 607.137817,780.268372 606.966858,832.242737 
	C606.886414,856.698486 613.114685,878.624146 629.820801,896.953125 
	C640.919128,909.129639 652.216858,921.124146 663.390564,933.232300 
	C694.209229,966.628113 724.989502,1000.059326 755.842346,1033.423584 
	C759.739014,1037.637329 763.978577,1041.534058 768.117249,1046.229370 
z"/>
<path fill="#343C4E" opacity="1.000000" stroke="none" 
	d="
M572.175293,380.093445 
	C572.186829,401.056763 572.923523,422.052094 572.000122,442.974152 
	C571.127136,462.752380 560.372009,478.276611 547.256104,492.381897 
	C526.064941,515.171509 505.049255,538.124695 484.009399,561.054565 
	C465.940338,580.746826 456.598083,603.571289 456.725037,630.728821 
	C457.099609,710.852539 457.260498,790.983582 456.527588,871.102722 
	C456.279083,898.269165 465.045074,921.091980 483.083099,940.516052 
	C502.107635,961.002319 521.912354,980.762329 541.250061,1000.960449 
	C548.147705,1008.164917 554.907227,1015.529297 561.312134,1023.170776 
	C568.579895,1031.841797 572.001892,1042.213501 573.260071,1054.207520 
	C573.631104,1063.011230 573.842651,1071.000977 574.054199,1078.990601 
	C573.992310,1079.440918 573.930481,1079.891113 573.879639,1081.137207 
	C573.930176,1101.746704 573.969604,1121.560547 574.009033,1141.374390 
	C573.948914,1142.042725 573.888855,1142.711060 573.864014,1144.066650 
	C573.908875,1147.418701 573.677307,1150.111328 573.981506,1152.741943 
	C574.505981,1157.277222 572.808533,1158.830688 568.201294,1158.754883 
	C550.390503,1158.462280 532.572937,1158.318604 514.760986,1158.473022 
	C504.786469,1158.559326 495.669678,1156.412109 487.557129,1150.490723 
	C487.557129,1150.490723 487.514801,1150.434570 487.260071,1150.205322 
	C485.011261,1148.295898 483.017181,1146.615723 481.023132,1144.935547 
	C465.975006,1127.830566 450.901001,1110.748413 435.884125,1093.615967 
	C405.377350,1058.811401 374.983765,1023.907349 344.379303,989.188965 
	C328.211639,970.847961 320.833954,949.587891 320.876740,925.237183 
	C321.059418,821.273682 320.927002,717.309570 321.165100,613.346252 
	C321.193542,600.924011 321.645996,588.291931 323.924683,576.136230 
	C327.149750,558.932251 336.662506,544.464050 348.056763,531.350708 
	C372.727753,502.957550 397.323639,474.497192 422.217682,446.300476 
	C442.594513,423.220337 463.263245,400.395264 483.993561,377.631012 
	C493.553986,367.132568 505.901825,363.031555 519.939087,363.324982 
	C531.347290,363.563446 542.760376,363.563477 554.898376,364.040710 
	C560.074890,364.314087 564.524292,364.216034 568.973755,364.117981 
	C569.425293,364.069824 569.876770,364.021667 570.644531,364.498016 
	C571.365662,370.046143 571.770508,375.069794 572.175293,380.093445 
z"/>
<path fill="#333B4E" opacity="1.000000" stroke="none" 
	d="
M1225.873779,906.960388 
	C1226.949585,925.948120 1226.791016,945.051453 1216.031738,961.519897 
	C1207.340454,974.822937 1197.307617,987.383423 1186.824951,999.358521 
	C1145.735962,1046.297974 1104.212646,1092.856934 1062.898071,1139.599121 
	C1052.967163,1150.834473 1040.981445,1157.881348 1025.700806,1158.184692 
	C1013.068054,1158.435669 1000.428894,1158.364868 987.421021,1157.857300 
	C987.361267,1153.474976 987.981140,1149.667603 987.924927,1145.869995 
	C987.777466,1135.899292 987.165649,1125.934814 987.049744,1115.964233 
	C986.864502,1100.037354 986.689819,1084.024170 992.362488,1068.812012 
	C995.424561,1060.600708 998.076477,1051.747925 1003.205444,1044.901611 
	C1012.708923,1032.216309 1023.640625,1020.555481 1034.451294,1008.907837 
	C1045.375854,997.137512 1057.019897,986.037781 1068.060181,974.371338 
	C1073.518188,968.603882 1078.028320,961.938721 1083.492554,956.178101 
	C1094.684814,944.378784 1104.200806,931.632263 1109.681519,916.096252 
	C1113.101929,906.400085 1116.763672,896.762512 1116.942749,886.363464 
	C1117.188599,872.094116 1117.077759,857.817200 1117.008789,843.544067 
	C1116.698853,779.419434 1116.160278,715.295044 1116.162354,651.170532 
	C1116.162842,637.101807 1111.300781,625.314209 1103.636841,614.115112 
	C1096.312134,603.411743 1086.954712,594.822815 1076.415527,587.446045 
	C1072.585205,584.765015 1068.544434,582.384460 1064.599731,579.866760 
	C1043.713867,557.723145 1022.827942,535.579590 1001.873169,512.727051 
	C1000.278259,508.134766 998.579346,504.308105 997.280151,500.350220 
	C996.211426,497.094482 995.692749,493.662628 994.796875,490.344849 
	C992.916077,483.379852 990.159912,476.543671 989.214783,469.460907 
	C988.043518,460.682831 988.130188,451.710358 988.052063,442.818542 
	C987.894470,424.861664 987.938660,406.902283 988.023315,388.944519 
	C988.044434,384.482422 988.783508,380.019897 988.735046,375.562561 
	C988.697083,372.069153 987.952881,368.583435 987.520020,365.074646 
	C993.596802,365.074646 1000.543457,365.178802 1007.482239,364.992798 
	C1008.994019,364.952240 1010.477966,363.873688 1011.974731,363.273193 
	C1032.397583,361.783691 1047.073853,371.224121 1060.101196,386.254974 
	C1082.933716,412.598663 1106.871704,437.984131 1130.777100,464.164612 
	C1131.781616,465.091156 1132.355957,465.624054 1132.983154,466.383484 
	C1133.190552,466.915619 1133.438354,467.082367 1133.928345,467.415100 
	C1139.360718,473.541260 1144.644287,479.362610 1149.927734,485.183960 
	C1150.928711,486.438965 1151.929688,487.693970 1153.197998,489.088684 
	C1168.913452,506.397858 1184.397095,523.535522 1199.800659,540.744934 
	C1217.587524,560.616821 1227.411621,583.536438 1226.261475,610.602539 
	C1226.169800,612.761230 1226.225098,614.926270 1225.874023,617.890137 
	C1225.368652,620.498657 1225.056152,622.305359 1225.055298,624.112183 
	C1225.017944,702.483215 1225.001099,780.854248 1225.036255,859.225281 
	C1225.037109,861.147400 1225.651001,863.069336 1225.979004,864.991333 
	C1226.047485,866.717468 1226.115967,868.443665 1225.845947,870.931030 
	C1225.337036,879.723633 1225.052856,887.754944 1225.046509,895.786499 
	C1225.043457,899.510925 1225.581177,903.235718 1225.873779,906.960388 
z"/>
<path fill="#232539" opacity="1.000000" stroke="none" 
	d="
M643.488647,363.473450 
	C642.354248,364.277618 640.762939,364.988434 638.588440,365.959747 
	C638.407166,369.036530 638.027954,372.634186 638.012085,376.233429 
	C637.941895,392.174744 638.358765,408.128510 637.858643,424.054504 
	C637.411316,438.298798 637.252563,452.744171 634.688232,466.681641 
	C631.453613,484.261780 624.316589,500.590088 611.696106,513.992920 
	C600.756531,525.610535 590.125793,537.518616 579.222595,549.171143 
	C570.816589,558.154846 561.821838,566.614502 553.782959,575.907532 
	C545.777039,585.162537 537.838867,594.660034 531.304138,604.960388 
	C521.661926,620.158997 518.567078,637.247803 518.816956,655.336304 
	C519.330261,692.486023 518.986511,729.647644 518.992615,766.804321 
	C518.997498,796.629639 518.887573,826.455627 519.044128,856.280090 
	C519.131409,872.916626 519.236084,889.573303 520.117310,906.179260 
	C520.862976,920.228882 525.079163,933.508484 532.031494,945.828613 
	C534.256165,949.770874 536.514709,953.694031 538.744019,958.000854 
	C525.581848,944.533081 511.964142,931.098816 499.442596,916.710632 
	C490.425354,906.348999 487.270660,893.217529 486.958435,879.581909 
	C486.570038,862.617798 486.244476,845.648865 486.193695,828.681091 
	C486.056152,782.750977 486.078369,736.820312 485.997864,689.969666 
	C485.902466,667.709045 485.846436,646.368713 485.790375,625.028320 
	C486.558655,605.707825 495.442413,589.990662 508.066162,576.166321 
	C529.940918,552.211060 551.950867,528.376221 574.139526,504.711578 
	C592.496704,485.133270 602.401428,462.384064 602.127563,435.314392 
	C601.896790,412.510986 602.041260,389.703827 602.019775,366.898315 
	C602.018860,365.919434 602.019653,364.940552 602.019653,363.380127 
	C615.865540,363.380127 629.448669,363.380127 643.488647,363.473450 
z"/>
<path fill="#24273B" opacity="1.000000" stroke="none" 
	d="
M1064.773193,580.187622 
	C1068.544434,582.384460 1072.585205,584.765015 1076.415527,587.446045 
	C1086.954712,594.822815 1096.312134,603.411743 1103.636841,614.115112 
	C1111.300781,625.314209 1116.162842,637.101807 1116.162354,651.170532 
	C1116.160278,715.295044 1116.698853,779.419434 1117.008789,843.544067 
	C1117.077759,857.817200 1117.188599,872.094116 1116.942749,886.363464 
	C1116.763672,896.762512 1113.101929,906.400085 1109.681519,916.096252 
	C1104.200806,931.632263 1094.684814,944.378784 1083.492554,956.178101 
	C1078.028320,961.938721 1073.518188,968.603882 1068.060181,974.371338 
	C1057.019897,986.037781 1045.375854,997.137512 1034.451294,1008.907837 
	C1023.640625,1020.555481 1012.708923,1032.216309 1003.205444,1044.901611 
	C998.076477,1051.747925 995.424561,1060.600708 992.362488,1068.812012 
	C986.689819,1084.024170 986.864502,1100.037354 987.049744,1115.964233 
	C987.165649,1125.934814 987.777466,1135.899292 987.924927,1145.869995 
	C987.981140,1149.667603 987.361267,1153.474976 987.040405,1157.714600 
	C978.537048,1158.151245 970.042847,1158.151245 961.330505,1158.151245 
	C961.277222,1157.203613 961.197327,1155.782715 961.024109,1153.966064 
	C961.109985,1153.518433 961.170776,1153.391357 961.148743,1152.817383 
	C960.908997,1150.776978 960.388611,1149.104492 960.411133,1147.439453 
	C960.453918,1144.290161 960.808411,1141.145020 961.115356,1137.535889 
	C961.143250,1129.049316 961.089111,1121.024902 961.035034,1113.000610 
	C961.126404,1098.177124 961.680847,1083.338623 961.200012,1068.533691 
	C960.485596,1046.537231 968.353333,1028.260742 983.354004,1012.616821 
	C1007.673340,987.254639 1031.803101,961.709229 1056.264160,936.484802 
	C1077.410278,914.678711 1087.289185,889.214966 1086.957520,858.478638 
	C1086.187988,787.166443 1086.828003,715.838623 1086.955322,644.517273 
	C1086.991455,624.270508 1083.528198,605.062256 1071.109375,588.364014 
	C1069.123901,585.694336 1067.004272,583.124512 1064.773193,580.187622 
z"/>
<path fill="#25283B" opacity="1.000000" stroke="none" 
	d="
M1011.527832,363.208252 
	C1010.477966,363.873688 1008.994019,364.952240 1007.482239,364.992798 
	C1000.543457,365.178802 993.596802,365.074646 987.520020,365.074646 
	C987.952881,368.583435 988.697083,372.069153 988.735046,375.562561 
	C988.783508,380.019897 988.044434,384.482422 988.023315,388.944519 
	C987.938660,406.902283 987.894470,424.861664 988.052063,442.818542 
	C988.130188,451.710358 988.043518,460.682831 989.214783,469.460907 
	C990.159912,476.543671 992.916077,483.379852 994.796875,490.344849 
	C995.692749,493.662628 996.211426,497.094482 997.280151,500.350220 
	C998.579346,504.308105 1000.278259,508.134766 1001.746582,512.445923 
	C992.414429,502.901886 982.725952,493.277344 973.985291,482.857727 
	C965.779907,473.076263 961.395264,461.077667 961.033386,448.455505 
	C960.270935,421.862793 960.584534,395.239960 960.357727,368.630371 
	C960.322144,364.454712 961.711304,362.766479 966.177979,362.857208 
	C981.141418,363.161102 996.112610,363.078156 1011.527832,363.208252 
z"/>
<path fill="#D6D2CB" opacity="1.000000" stroke="none" 
	d="
M960.670227,1112.852051 
	C961.089111,1121.024902 961.143250,1129.049316 960.779846,1137.629639 
	C959.431519,1140.207397 958.022278,1142.154907 957.694275,1144.270020 
	C957.306274,1146.771118 957.851807,1149.416870 957.992676,1152.000000 
	C953.012268,1150.919800 951.309570,1148.517944 953.763245,1143.981323 
	C956.866760,1138.242920 956.611145,1132.723145 955.300903,1126.754150 
	C954.786621,1124.411499 955.337463,1121.834961 955.405762,1119.364868 
	C955.581909,1112.997070 955.884644,1106.628662 955.852173,1100.261963 
	C955.843567,1098.580078 954.802856,1096.903564 954.136902,1094.930786 
	C958.119446,1094.153687 958.881226,1096.111938 959.046143,1099.230469 
	C959.284180,1103.731079 959.868652,1108.213501 960.670227,1112.852051 
z"/>
<path fill="#DAD6D0" opacity="1.000000" stroke="none" 
	d="
M487.494202,1150.848877 
	C495.669678,1156.412109 504.786469,1158.559326 514.760986,1158.473022 
	C532.572937,1158.318604 550.390503,1158.462280 568.201294,1158.754883 
	C572.808533,1158.830688 574.505981,1157.277222 573.981506,1152.741943 
	C573.677307,1150.111328 573.908875,1147.418701 573.965210,1144.393677 
	C574.735107,1148.210571 576.071350,1152.432617 575.781494,1156.539673 
	C575.687073,1157.877197 571.420532,1159.712524 568.937683,1159.935791 
	C562.402405,1160.523560 555.798767,1160.347778 549.222412,1160.482300 
	C541.615967,1160.637939 533.998474,1161.128296 526.406311,1160.870361 
	C518.315674,1160.595581 510.245453,1159.062866 502.172974,1159.114380 
	C495.440613,1159.157349 491.335938,1155.708252 487.494202,1150.848877 
z"/>
<path fill="#232539" opacity="1.000000" stroke="none" 
	d="
M601.919312,1052.021973 
	C601.214478,1033.541138 593.228882,1018.111633 581.787354,1003.692383 
	C581.735107,1003.276306 582.017639,1002.985168 582.351196,1003.059082 
	C587.408447,1008.551331 592.275513,1013.854004 596.781860,1019.447327 
	C598.476929,1021.551147 600.430969,1023.978027 598.426208,1027.307007 
	C597.977539,1028.052124 599.031494,1030.458862 600.049500,1031.200806 
	C604.784485,1034.651123 601.864075,1040.232178 603.987305,1044.662109 
	C605.841187,1048.530029 604.035217,1054.103760 604.020752,1058.924316 
	C603.972290,1075.060059 604.040222,1091.196167 603.950867,1107.331543 
	C603.940308,1109.231079 603.230652,1111.126831 602.729248,1112.566406 
	C602.655151,1101.668579 602.818054,1091.227295 602.703125,1080.789062 
	C602.597473,1071.198364 602.192383,1061.610840 601.919312,1052.021973 
z"/>
<path fill="#D6D2CB" opacity="1.000000" stroke="none" 
	d="
M1149.972900,484.872955 
	C1144.644287,479.362610 1139.360718,473.541260 1134.107910,467.254364 
	C1134.130249,466.391144 1134.121704,465.993408 1134.113159,465.595703 
	C1133.718872,465.782745 1133.324463,465.969849 1132.930176,466.156921 
	C1132.355957,465.624054 1131.781616,465.091156 1131.091064,464.285095 
	C1131.594604,462.891327 1132.214600,461.770691 1133.143677,460.091156 
	C1137.476929,464.358582 1141.564819,468.500610 1145.812500,472.471771 
	C1146.692383,473.294403 1148.219604,473.381531 1149.353516,473.985809 
	C1151.135620,474.935547 1152.899902,475.953766 1154.501953,477.167175 
	C1154.730591,477.340393 1153.944336,479.519043 1153.735229,479.501373 
	C1151.726685,479.331177 1149.741211,478.888641 1147.531616,478.484283 
	C1148.267944,480.283905 1149.142944,482.422913 1149.972900,484.872955 
z"/>
<path fill="#EBE8E5" opacity="1.000000" stroke="none" 
	d="
M601.689819,1052.364014 
	C602.192383,1061.610840 602.597473,1071.198364 602.703125,1080.789062 
	C602.818054,1091.227295 602.655151,1101.668579 602.617493,1113.006714 
	C602.695374,1116.923706 602.769287,1119.942383 602.721558,1123.376221 
	C602.560913,1125.513306 602.521912,1127.235352 602.482910,1128.957275 
	C601.992310,1127.811890 601.076843,1126.667603 601.073730,1125.520996 
	C601.009338,1101.727661 601.046326,1077.934204 601.083679,1054.140747 
	C601.084473,1053.662354 601.329285,1053.184204 601.689819,1052.364014 
z"/>
<path fill="#D6D2CB" opacity="1.000000" stroke="none" 
	d="
M934.021118,1075.000000 
	C935.725220,1075.000000 937.429321,1075.000000 939.568420,1075.000000 
	C939.568420,1085.860474 939.568420,1096.916748 939.568420,1108.383423 
	C937.860596,1107.893799 936.364502,1107.464966 934.495483,1106.682861 
	C934.137329,1105.888184 934.152039,1105.446655 934.533264,1104.957275 
	C938.707886,1102.364624 936.819702,1099.116333 936.000000,1095.583618 
	C935.371460,1093.109253 934.742859,1091.051270 934.099487,1088.550293 
	C934.089539,1085.742065 934.094238,1083.376831 934.342102,1080.938477 
	C934.412720,1080.240356 934.240234,1079.615723 934.049072,1078.592041 
	C934.027344,1077.128784 934.024231,1076.064453 934.021118,1075.000000 
z"/>
<path fill="#EBE8E5" opacity="1.000000" stroke="none" 
	d="
M485.450592,625.202637 
	C485.846436,646.368713 485.902466,667.709045 485.885010,689.511230 
	C485.216797,688.734741 484.111572,687.499695 484.103729,686.257629 
	C483.981934,667.004700 483.984985,647.750793 484.037872,628.497375 
	C484.040710,627.456238 484.737213,626.417053 485.450592,625.202637 
z"/>
<path fill="#EBE8E5" opacity="1.000000" stroke="none" 
	d="
M574.401978,1141.101929 
	C573.969604,1121.560547 573.930176,1101.746704 573.966980,1081.470093 
	C574.683105,1082.202515 575.872559,1083.393921 575.880493,1084.593262 
	C575.998047,1102.286987 575.978455,1119.981934 575.906799,1137.676025 
	C575.902527,1138.728638 575.182129,1139.778442 574.401978,1141.101929 
z"/>
<path fill="#DAD6D0" opacity="1.000000" stroke="none" 
	d="
M932.464417,1155.881592 
	C932.462891,1142.537720 932.461304,1129.193970 932.821228,1115.398560 
	C933.458435,1114.987061 933.735229,1115.017334 934.013062,1115.037720 
	C934.013062,1115.037720 934.014343,1115.525269 934.010559,1116.141113 
	C934.007629,1117.501953 934.008423,1118.246704 934.009216,1118.991577 
	C934.007568,1124.683838 934.005920,1130.375977 934.016296,1136.863770 
	C934.352173,1138.437866 934.676086,1139.216553 935.000000,1139.995117 
	C935.571594,1141.781982 936.143127,1143.568726 936.828186,1146.040039 
	C935.449219,1149.776855 933.956787,1152.829224 932.464417,1155.881592 
z"/>
<path fill="#232539" opacity="1.000000" stroke="none" 
	d="
M544.674133,964.839050 
	C546.092224,965.182068 548.159363,965.343384 549.249939,966.459167 
	C556.678711,974.059448 563.914001,981.849365 571.152039,989.633667 
	C571.475159,989.981201 571.219910,990.866455 571.106323,991.783203 
	C563.415283,984.264526 555.851135,976.464722 548.289551,968.662476 
	C547.144104,967.480530 546.010498,966.287109 544.674133,964.839050 
z"/>
<path fill="#EBE8E5" opacity="1.000000" stroke="none" 
	d="
M934.018188,1114.589355 
	C933.735229,1115.017334 933.458435,1114.987061 932.974060,1114.950684 
	C932.678772,1101.292236 932.592163,1087.630249 932.617798,1073.515869 
	C933.132507,1073.545532 933.534912,1074.027832 933.979248,1074.755005 
	C934.024231,1076.064453 934.027344,1077.128784 934.038086,1078.929077 
	C934.063538,1080.113892 934.081238,1080.562744 934.098999,1081.011719 
	C934.094238,1083.376831 934.089539,1085.742065 934.070679,1088.993530 
	C934.071472,1092.246826 934.086426,1094.613892 934.089844,1097.426270 
	C934.107788,1100.249634 934.137268,1102.627319 934.166748,1105.005127 
	C934.152039,1105.446655 934.137329,1105.888184 934.143311,1106.660400 
	C934.117126,1109.374512 934.070190,1111.757812 934.018188,1114.589355 
z"/>
<path fill="#D6D2CB" opacity="1.000000" stroke="none" 
	d="
M932.360718,1156.231201 
	C933.956787,1152.829224 935.449219,1149.776855 936.972046,1146.362305 
	C938.425293,1147.419678 940.316711,1148.628906 941.086060,1150.342041 
	C941.511841,1151.290161 940.296265,1153.258789 939.402222,1154.454712 
	C937.719604,1156.705566 935.734131,1158.729858 933.544556,1160.919556 
	C933.001953,1160.179565 932.789307,1159.368286 932.401001,1158.297852 
	C932.235901,1157.552734 932.246460,1157.066650 932.360718,1156.231201 
z"/>
<path fill="#232539" opacity="1.000000" stroke="none" 
	d="
M602.544556,1129.384277 
	C602.521912,1127.235352 602.560913,1125.513306 602.986084,1123.702637 
	C603.581665,1125.404785 603.960266,1127.194580 603.972229,1128.986816 
	C604.037598,1138.784058 604.012939,1148.581909 604.019287,1158.379639 
	C603.645752,1158.249023 603.272278,1158.118408 602.637573,1157.820679 
	C602.378418,1156.993042 602.380371,1156.332397 602.364258,1155.054443 
	C602.277527,1152.606567 602.208923,1150.775879 602.140381,1148.945190 
	C602.233887,1148.207153 602.327393,1147.469238 602.375610,1145.950928 
	C602.279907,1141.463257 602.229492,1137.755737 602.179077,1134.048340 
	C602.321411,1132.635986 602.463806,1131.223511 602.544556,1129.384277 
z"/>
<path fill="#EBE8E5" opacity="1.000000" stroke="none" 
	d="
M574.414429,1078.842163 
	C573.842651,1071.000977 573.631104,1063.011230 573.402893,1054.557251 
	C573.993347,1054.320557 575.132202,1054.551758 575.130737,1054.775513 
	C575.078247,1062.748657 574.919006,1070.721191 574.414429,1078.842163 
z"/>
<path fill="#DAD6D0" opacity="1.000000" stroke="none" 
	d="
M958.317688,1152.239136 
	C957.851807,1149.416870 957.306274,1146.771118 957.694275,1144.270020 
	C958.022278,1142.154907 959.431519,1140.207397 960.697876,1138.092041 
	C960.808411,1141.145020 960.453918,1144.290161 960.411133,1147.439453 
	C960.388611,1149.104492 960.908997,1150.776978 961.069702,1152.788086 
	C960.184265,1152.912720 959.413452,1152.695557 958.317688,1152.239136 
z"/>
<path fill="#EBE8E5" opacity="1.000000" stroke="none" 
	d="
M601.838501,1134.115234 
	C602.229492,1137.755737 602.279907,1141.463257 602.237732,1145.598877 
	C598.625366,1142.259399 599.285889,1138.263184 601.838501,1134.115234 
z"/>
<path fill="#D6D2CB" opacity="1.000000" stroke="none" 
	d="
M1163.611816,482.928467 
	C1161.917358,483.394836 1160.279785,483.516327 1158.642212,483.637817 
	C1158.757935,482.734070 1158.873657,481.830292 1158.989380,480.926514 
	C1160.549072,481.478851 1162.108887,482.031189 1163.611816,482.928467 
z"/>
<path fill="#232539" opacity="1.000000" stroke="none" 
	d="
M572.269531,379.639587 
	C571.770508,375.069794 571.365662,370.046143 570.980103,364.562927 
	C571.524780,364.883759 572.486938,365.655548 572.502563,366.445984 
	C572.586304,370.690002 572.434326,374.938690 572.269531,379.639587 
z"/>
<path fill="#D6D2CB" opacity="1.000000" stroke="none" 
	d="
M940.246887,1119.757568 
	C937.322144,1118.328979 937.304871,1117.934448 940.474915,1113.910278 
	C940.474915,1116.318726 940.474915,1117.907349 940.246887,1119.757568 
z"/>
<path fill="#232539" opacity="1.000000" stroke="none" 
	d="
M576.822876,998.383911 
	C578.655396,998.846375 580.657959,999.598389 582.643188,1000.863647 
	C582.423096,1001.912964 582.220337,1002.449036 582.017578,1002.985168 
	C582.017639,1002.985168 581.735107,1003.276306 581.592163,1003.420288 
	C579.963867,1001.934021 578.478394,1000.303772 576.822876,998.383911 
z"/>
<path fill="#DAD6D0" opacity="1.000000" stroke="none" 
	d="
M481.036102,1145.305176 
	C483.017181,1146.615723 485.011261,1148.295898 487.224915,1150.204346 
	C484.114075,1150.458008 481.738037,1149.200317 481.036102,1145.305176 
z"/>
<path fill="#D6D2CB" opacity="1.000000" stroke="none" 
	d="
M938.457397,1129.717285 
	C938.253967,1127.970459 938.253967,1126.473999 938.253967,1124.977539 
	C938.853455,1125.067749 939.452942,1125.157959 940.052429,1125.248291 
	C939.588562,1126.821411 939.124695,1128.394531 938.457397,1129.717285 
z"/>
<path fill="#232539" opacity="1.000000" stroke="none" 
	d="
M568.513062,364.058533 
	C564.524292,364.216034 560.074890,364.314087 555.290955,364.166931 
	C559.321777,363.947540 563.687134,363.973328 568.513062,364.058533 
z"/>
<path fill="#D6D2CB" opacity="1.000000" stroke="none" 
	d="
M954.188354,1065.351440 
	C954.438721,1064.267700 954.768555,1063.475098 955.098389,1062.682617 
	C955.578918,1063.176636 956.059448,1063.670654 956.539978,1064.164673 
	C955.782593,1064.657349 955.025208,1065.150024 954.188354,1065.351440 
z"/>
<path fill="#EBE8E5" opacity="1.000000" stroke="none" 
	d="
M601.899841,1149.228271 
	C602.208923,1150.775879 602.277527,1152.606567 602.237610,1154.749023 
	C601.972534,1153.210938 601.815918,1151.361206 601.899841,1149.228271 
z"/>
<path fill="#D6D2CB" opacity="1.000000" stroke="none" 
	d="
M1159.632812,467.731750 
	C1159.192383,467.957642 1158.808960,467.957397 1158.425659,467.957153 
	C1158.539795,467.552063 1158.653809,467.146942 1158.767822,466.741821 
	C1159.075195,466.996399 1159.382446,467.251007 1159.632812,467.731750 
z"/>
<path fill="#D6D2CB" opacity="1.000000" stroke="none" 
	d="
M953.985107,1059.270020 
	C953.764771,1058.755249 953.774109,1058.246704 953.783447,1057.738281 
	C953.937744,1057.742188 954.227112,1057.743286 954.227234,1057.750366 
	C954.237793,1058.258667 954.225281,1058.767456 953.985107,1059.270020 
z"/>
<path fill="#232539" opacity="1.000000" stroke="none" 
	d="
M572.060547,993.307251 
	C572.918030,993.850220 573.919861,994.677124 574.924438,995.877319 
	C574.019714,995.364136 573.112305,994.477661 572.060547,993.307251 
z"/>
<path fill="#D6D2CB" opacity="1.000000" stroke="none" 
	d="
M953.608887,1154.875122 
	C954.045471,1155.131104 954.307129,1155.541870 954.568848,1155.952637 
	C954.298584,1156.051758 954.028320,1156.151001 953.758118,1156.250244 
	C953.650085,1155.843506 953.542053,1155.436768 953.608887,1154.875122 
z"/>
<path fill="#D6D2CB" opacity="1.000000" stroke="none" 
	d="
M934.205200,1118.779297 
	C934.008423,1118.246704 934.007629,1117.501953 934.010376,1116.385010 
	C934.143005,1116.864258 934.272034,1117.715576 934.205200,1118.779297 
z"/>
<path fill="#D6D2CB" opacity="1.000000" stroke="none" 
	d="
M934.987610,1139.668091 
	C934.676086,1139.216553 934.352173,1138.437866 934.017334,1137.332031 
	C934.329285,1137.783569 934.652283,1138.562256 934.987610,1139.668091 
z"/>
<path fill="#232539" opacity="1.000000" stroke="none" 
	d="
M542.188843,962.254517 
	C542.578125,962.267395 543.085022,962.560425 543.749268,963.110901 
	C543.373291,963.090454 542.839905,962.812561 542.188843,962.254517 
z"/>
<path fill="#232539" opacity="1.000000" stroke="none" 
	d="
M540.631836,960.485107 
	C540.968567,960.586182 541.397644,960.970642 541.927002,961.638184 
	C541.592957,961.536987 541.158569,961.152710 540.631836,960.485107 
z"/>
<path fill="#232539" opacity="1.000000" stroke="none" 
	d="
M543.679871,963.440918 
	C543.908386,963.367676 544.227234,963.607910 544.682617,964.116699 
	C544.469543,964.174866 544.119812,963.964661 543.679871,963.440918 
z"/>
<path fill="#232539" opacity="1.000000" stroke="none" 
	d="
M539.758301,959.380371 
	C539.969971,959.311768 540.270691,959.555969 540.744141,960.030212 
	C540.560425,960.071228 540.203918,959.882202 539.758301,959.380371 
z"/>
<path fill="#232539" opacity="1.000000" stroke="none" 
	d="
M538.762024,958.383057 
	C538.981201,958.315735 539.292297,958.558411 539.781006,959.037354 
	C539.590332,959.080017 539.222168,958.886536 538.762024,958.383057 
z"/>
<path fill="#25283B" opacity="1.000000" stroke="none" 
	d="
M1226.055664,864.528748 
	C1225.651001,863.069336 1225.037109,861.147400 1225.036255,859.225281 
	C1225.001099,780.854248 1225.017944,702.483215 1225.055298,624.112183 
	C1225.056152,622.305359 1225.368652,620.498657 1225.762695,618.347595 
	C1226.110229,642.288147 1226.334351,666.572998 1226.330688,690.857849 
	C1226.322021,748.593933 1226.205444,806.330078 1226.055664,864.528748 
z"/>
<path fill="#25283B" opacity="1.000000" stroke="none" 
	d="
M1225.949951,906.499756 
	C1225.581177,903.235718 1225.043457,899.510925 1225.046509,895.786499 
	C1225.052856,887.754944 1225.337036,879.723633 1225.740601,871.351685 
	C1225.991211,882.687134 1226.008667,894.363098 1225.949951,906.499756 
z"/>
<path fill="#24263A" opacity="1.000000" stroke="none" 
	d="
M582.351196,1003.059082 
	C582.220337,1002.449036 582.423096,1001.912964 582.834839,1001.172119 
	C594.181702,1005.520020 602.843506,1013.257263 610.695496,1022.144714 
	C621.682922,1034.580933 629.719727,1048.483765 632.477966,1065.038208 
	C633.267273,1069.775635 633.884155,1074.603516 633.917908,1079.394531 
	C634.078613,1102.225342 633.974854,1125.058105 634.066650,1147.889771 
	C634.079224,1151.025146 634.660034,1154.158325 635.018799,1157.725342 
	C624.963745,1158.281616 614.867798,1158.405273 604.395508,1158.454224 
	C604.012939,1148.581909 604.037598,1138.784058 603.972229,1128.986816 
	C603.960266,1127.194580 603.581665,1125.404785 603.107788,1123.287598 
	C602.769287,1119.942383 602.695374,1116.923706 602.733276,1113.464600 
	C603.230652,1111.126831 603.940308,1109.231079 603.950867,1107.331543 
	C604.040222,1091.196167 603.972290,1075.060059 604.020752,1058.924316 
	C604.035217,1054.103760 605.841187,1048.530029 603.987305,1044.662109 
	C601.864075,1040.232178 604.784485,1034.651123 600.049500,1031.200806 
	C599.031494,1030.458862 597.977539,1028.052124 598.426208,1027.307007 
	C600.430969,1023.978027 598.476929,1021.551147 596.781860,1019.447327 
	C592.275513,1013.854004 587.408447,1008.551331 582.351196,1003.059082 
z"/>
<path fill="#DAD6D0" opacity="1.000000" stroke="none" 
	d="
M768.059204,1045.577637 
	C763.978577,1041.534058 759.739014,1037.637329 755.842346,1033.423584 
	C724.989502,1000.059326 694.209229,966.628113 663.390564,933.232300 
	C652.216858,921.124146 640.919128,909.129639 629.820801,896.953125 
	C613.114685,878.624146 606.886414,856.698486 606.966858,832.242737 
	C607.137817,780.268372 606.671997,728.292175 606.756958,676.317200 
	C606.784180,659.644653 614.616211,645.774231 625.207153,633.660889 
	C641.639954,614.865845 658.617493,596.545044 675.457520,578.108521 
	C705.757202,544.936218 736.127808,511.828644 766.450012,478.676849 
	C766.889648,478.196259 767.085449,477.492615 767.367004,476.947174 
	C813.990540,527.551758 860.074463,577.570618 906.592651,628.065430 
	C922.445984,645.776062 930.519897,665.747437 929.936035,689.081604 
	C929.665100,699.906189 929.855591,710.741943 929.810730,721.572571 
	C929.745178,737.393250 929.656128,753.213745 929.270813,769.241943 
	C928.651855,770.688416 928.070312,771.926392 928.066528,773.166138 
	C928.003052,793.939209 927.984497,814.712708 928.060059,835.485657 
	C928.065735,837.033264 928.861694,838.577942 929.379272,840.570801 
	C929.215149,856.617981 924.791138,871.104126 915.677002,883.591675 
	C908.351135,893.629028 899.791321,902.812439 891.355408,911.985168 
	C850.334961,956.587952 809.171814,1001.059509 768.059204,1045.577637 
M862.922791,831.209106 
	C863.224121,818.729980 863.792480,806.250488 863.771423,793.771912 
	C863.726990,767.460754 863.427185,741.149597 863.121460,714.839722 
	C862.999207,704.314270 860.869812,694.009521 854.299927,685.723633 
	C845.755737,674.947998 836.352600,664.825806 826.961182,654.756226 
	C812.899902,639.679626 798.518860,624.901550 784.290955,609.980103 
	C778.940857,604.369263 773.638794,598.712524 767.993469,592.736633 
	C764.057983,597.167053 760.646179,601.210327 757.022583,605.053955 
	C736.027283,627.323792 715.051697,649.612915 693.928833,671.761414 
	C680.256653,686.097351 670.950562,702.213257 671.033997,722.736023 
	C671.163940,754.722961 671.032104,786.710938 671.143921,818.698059 
	C671.177246,828.225586 671.743164,837.831665 676.916504,846.207153 
	C680.290039,851.668640 684.127563,856.939453 688.381653,861.742798 
	C700.513733,875.441040 712.917114,888.900635 725.305298,902.369995 
	C736.678833,914.736267 748.057800,927.101624 759.663330,939.248596 
	C764.846191,944.673157 769.123779,944.533142 774.173706,939.199768 
	C780.802490,932.198669 787.083374,924.867676 793.727234,917.881409 
	C811.385132,899.313660 829.181152,880.877258 846.873779,862.342407 
	C855.041931,853.785400 861.854309,844.466675 862.922791,831.209106 
z"/>
<path fill="#23263A" opacity="1.000000" stroke="none" 
	d="
M929.577087,769.034363 
	C929.656128,753.213745 929.745178,737.393250 929.810730,721.572571 
	C929.855591,710.741943 929.665100,699.906189 929.936035,689.081604 
	C930.519897,665.747437 922.445984,645.776062 906.865112,628.224243 
	C915.295593,627.467285 921.146790,633.179199 926.370361,638.307007 
	C934.605835,646.391479 942.576355,655.151123 948.690063,664.864258 
	C953.624939,672.704651 955.959778,682.274414 958.898193,691.256836 
	C963.259888,704.590149 964.160095,718.361877 964.147888,732.390198 
	C964.111389,774.465576 964.823730,816.541321 964.862976,858.617249 
	C964.871277,867.524536 964.073608,876.604858 962.233337,885.306458 
	C958.098877,904.855774 948.906494,921.790771 934.626770,936.115906 
	C925.502502,945.269226 917.511902,955.543152 908.823364,965.143066 
	C901.378540,973.368652 893.588196,981.280701 886.092773,989.461670 
	C879.930359,996.187683 873.972961,1003.101624 867.940369,1009.946106 
	C867.620728,1010.308838 867.396851,1010.780334 867.214111,1011.235596 
	C865.344360,1015.890137 862.691040,1019.365906 858.000305,1022.139954 
	C853.351746,1024.889038 850.069885,1029.946655 846.181763,1033.984985 
	C836.278564,1044.271118 826.240845,1054.431885 816.514160,1064.882324 
	C810.477234,1071.368286 803.377747,1075.085083 794.499023,1074.902100 
	C792.871643,1074.868652 790.797668,1074.043579 789.744446,1072.859375 
	C786.688721,1069.423706 784.170044,1065.516846 781.212524,1061.985840 
	C777.436279,1057.477539 773.416565,1053.174072 769.554565,1048.736206 
	C768.934265,1048.023438 768.589417,1047.071045 768.088257,1045.903564 
	C809.171814,1001.059509 850.334961,956.587952 891.355408,911.985168 
	C899.791321,902.812439 908.351135,893.629028 915.677002,883.591675 
	C924.791138,871.104126 929.215149,856.617981 929.503357,840.169678 
	C929.551331,815.892578 929.564209,792.463440 929.577087,769.034363 
z"/>
<path fill="#D8D3CD" opacity="1.000000" stroke="none" 
	d="
M1132.983154,466.383484 
	C1133.324463,465.969849 1133.718872,465.782745 1134.113159,465.595703 
	C1134.121704,465.993408 1134.130249,466.391144 1133.959229,466.949585 
	C1133.438354,467.082367 1133.190552,466.915619 1132.983154,466.383484 
z"/>
<path fill="#D8D3CD" opacity="1.000000" stroke="none" 
	d="
M934.533264,1104.957275 
	C934.137268,1102.627319 934.107788,1100.249634 934.325623,1097.304443 
	C935.048584,1096.491455 935.524292,1096.245728 936.000000,1096.000000 
	C936.819702,1099.116333 938.707886,1102.364624 934.533264,1104.957275 
z"/>
<path fill="#DAD6D0" opacity="1.000000" stroke="none" 
	d="
M936.000000,1095.583496 
	C935.524292,1096.245728 935.048584,1096.491455 934.337158,1096.859009 
	C934.086426,1094.613892 934.071472,1092.246826 934.085388,1089.436523 
	C934.742859,1091.051270 935.371460,1093.109253 936.000000,1095.583496 
z"/>
<path fill="#DAD6D0" opacity="1.000000" stroke="none" 
	d="
M934.342102,1080.938477 
	C934.081238,1080.562744 934.063538,1080.113892 934.056763,1079.327881 
	C934.240234,1079.615723 934.412720,1080.240356 934.342102,1080.938477 
z"/>
<path fill="#9D9A95" opacity="1.000000" stroke="none" 
	d="
M862.866272,831.648499 
	C861.854309,844.466675 855.041931,853.785400 846.873779,862.342407 
	C829.181152,880.877258 811.385132,899.313660 793.727234,917.881409 
	C787.083374,924.867676 780.802490,932.198669 774.173706,939.199768 
	C769.123779,944.533142 764.846191,944.673157 759.663330,939.248596 
	C748.057800,927.101624 736.678833,914.736267 725.305298,902.369995 
	C712.917114,888.900635 700.513733,875.441040 688.381653,861.742798 
	C684.127563,856.939453 680.290039,851.668640 676.916504,846.207153 
	C671.743164,837.831665 671.177246,828.225586 671.143921,818.698059 
	C671.032104,786.710938 671.163940,754.722961 671.033997,722.736023 
	C670.950562,702.213257 680.256653,686.097351 693.928833,671.761414 
	C715.051697,649.612915 736.027283,627.323792 757.022583,605.053955 
	C760.646179,601.210327 764.057983,597.167053 767.993469,592.736633 
	C773.638794,598.712524 778.940857,604.369263 784.290955,609.980103 
	C798.518860,624.901550 812.899902,639.679626 826.961182,654.756226 
	C836.352600,664.825806 845.755737,674.947998 854.299927,685.723633 
	C860.869812,694.009521 862.999207,704.314270 863.121460,714.839722 
	C863.427185,741.149597 863.726990,767.460754 863.771423,793.771912 
	C863.792480,806.250488 863.224121,818.729980 862.866272,831.648499 
z"/>
<path fill="#EBE8E5" opacity="1.000000" stroke="none" 
	d="
M929.270813,769.241943 
	C929.564209,792.463440 929.551331,815.892578 929.414368,839.722839 
	C928.861694,838.577942 928.065735,837.033264 928.060059,835.485657 
	C927.984497,814.712708 928.003052,793.939209 928.066528,773.166138 
	C928.070312,771.926392 928.651855,770.688416 929.270813,769.241943 
z"/>
</svg>